<?xml version="1.0" standalone="no"?>
<!DOCTYPE svg PUBLIC "-//W3C//DTD SVG 20010904//EN"
 "http://www.w3.org/TR/2001/REC-SVG-20010904/DTD/svg10.dtd">
<svg version="1.0" xmlns="http://www.w3.org/2000/svg"
 width="319.000000pt" height="319.000000pt" viewBox="0 0 319.000000 319.000000"
 preserveAspectRatio="xMidYMid meet">
<metadata>
Created by potrace 1.11, written by Peter Selinger 2001-2013
</metadata>
<g transform="translate(0.000000,319.000000) scale(0.100000,-0.100000)"
fill="#000000" stroke="none">
<path d="M803 2650 c-193 -48 -357 -140 -493 -276 -90 -89 -90 -88 -137 -159
-73 -109 -121 -217 -154 -350 -20 -84 -26 -356 -8 -450 46 -250 189 -475 414
-650 165 -128 312 -195 505 -230 81 -15 261 -17 319 -4 20 4 50 10 66 12 17 3
56 12 89 22 124 36 155 57 304 205 140 138 142 140 143 108 0 -18 0 -96 0
-173 l-1 -140 39 -22 c38 -22 51 -23 240 -23 149 0 202 3 208 13 4 6 8 204 8
438 l1 426 114 112 c63 62 253 248 423 414 169 165 307 308 307 317 0 8 -15
31 -34 50 -59 61 -361 354 -384 373 -21 16 -77 17 -940 16 l-917 -1 -112 -28z
m1047 -482 c1 -18 1 -166 1 -328 l1 -295 -214 -210 c-128 -125 -237 -223 -270
-243 -231 -137 -537 -112 -709 57 -75 75 -145 210 -165 317 -61 335 170 668
504 724 26 4 228 8 450 9 l402 1 0 -32z m660 28 c0 -4 -87 -92 -136 -138 l-29
-27 1 77 c1 42 2 80 3 85 1 7 161 11 161 3z"/>
</g>
</svg>
