<?xml version="1.0" encoding="utf-8"?>
<!-- Generator: Adobe Illustrator 23.1.1, SVG Export Plug-In . SVG Version: 6.00 Build 0)  -->
<svg version="1.1" id="Layer_1" xmlns="http://www.w3.org/2000/svg" xmlns:xlink="http://www.w3.org/1999/xlink" x="0px" y="0px"
	 viewBox="25 -10 180 140" style="enable-background:new 0 0 129.7 111.3;" xml:space="preserve">
<style type="text/css">
	.st0{fill:#616161;}
	.st1{fill:#F57C02;}
</style>
<title>Asset 1</title>
<g>
	<g id="Layer_1-2">
		<path class="st0" d="M53.4,111.3L0.1,85.6c0-0.3,0-0.6,0-0.9c0-19.3,0-38.7,0-58.1C0,26,0.3,25.5,0.9,25.3
			c3.3-1.6,6.6-3.2,9.9-4.8l0.8-0.3c0,0.3,0,0.5,0,0.8c0.1,11.3,0.2,22.7,0.2,34c0,6.8,0.1,13.7,0.1,20.5c0,1.3-0.1,1.1,1.1,1.4
			l3.1,1c0.2,0.1,0.5,0.1,0.8,0.2c0-0.3,0.1-0.6,0.1-0.9c0-2,0-4,0.1-6c0.1-9.3,0.2-18.5,0.3-27.8c0.1-8.1,0.2-16.2,0.3-24.3
			c0-0.4,0.1-0.9,0-1.3c-0.1-0.4,0.2-0.9,0.6-1c2.3-1.1,4.6-2.2,7-3.3l5.1-2.4c0.2-0.1,0.4-0.2,0.8-0.3c0.1,23.9,0.2,47.7,0.3,71.6
			l6,1.8c0-0.3,0.1-0.6,0.1-0.9c0-6.7,0.1-13.5,0.2-20.2c0.1-8.1,0.1-16.2,0.2-24.4c0-6.4,0.1-12.7,0.2-19.1c0-3.9,0.1-7.8,0.1-11.7
			V7.4L53.5,0C53.7,0.8,53.6,110.6,53.4,111.3z"/>
		<path class="st1" d="M60.6,109.3V59.5c0.3,0,0.6-0.1,0.9-0.1l8.2-0.2L87.8,59l7.8-0.1l9.6-0.2l16.4-0.3l7.1-0.1h0.9
			c0,0.3,0,0.6,0,0.9c0,9.3,0,18.7,0,28c0,0.8,0,0.8-0.8,1c-12.2,3.8-24.5,7.6-36.8,11.4L61.4,109C61.2,109.1,60.9,109.2,60.6,109.3
			z M75.9,84.3c0.3,0,0.4,0,0.6-0.1l10-1.8l12.7-2.3l11.8-2.2c2.2-0.4,4.5-0.8,6.8-1.3c0.8-0.2,0.8-0.2,0.8-1c0-1.1,0-2.2,0-3.3
			c0-0.2,0-0.5,0-0.8c-14.2,1.7-28.4,3.3-42.6,5L75.9,84.3z"/>
		<path class="st1" d="M129.7,53.1l-69-1.2c-0.2-0.6-0.2-48.8,0-49.8l0.8,0.2l49.1,15.1l18.4,5.7l0.5,0.2c0.2,0.1,0.4,0.3,0.4,0.5
			c0,0.2,0,0.3,0,0.5L129.7,53.1L129.7,53.1z M75.9,34.5c7.1,0.9,14.2,1.8,21.3,2.6s14.1,1.8,21.3,2.6c0-0.4,0-0.6,0-0.8
			c0-1.1,0-2.2,0-3.3c0-0.8,0-0.8-0.8-1h-0.1l-14.3-2.8l-15.2-2.9l-11.5-2.2c-0.2,0-0.4,0-0.6-0.1V34.5z"/>
	</g>
</g>
</svg>
